<svg width="37" height="37" viewBox="0 0 37 37" fill="none" xmlns="http://www.w3.org/2000/svg">
<g clip-path="url(#clip0_19_17093)">
<g clip-path="url(#clip1_19_17093)">
<path d="M0.203125 18.0962C0.203125 8.13127 8.28117 0.0532227 18.2461 0.0532227C28.211 0.0532227 36.2891 8.13127 36.2888 18.0962C36.2888 28.0611 28.2107 36.1391 18.2461 36.1389C8.28117 36.1389 0.203125 28.0608 0.203125 18.0962ZM18.2461 34.7576C27.448 34.7576 34.9075 27.2981 34.9075 18.0962C34.9075 8.89431 27.448 1.43481 18.2461 1.43481C9.04421 1.43481 1.58471 8.89431 1.58471 18.0962C1.58471 27.2981 9.04421 34.7576 18.2461 34.7576Z" fill="white"/>
<g clip-path="url(#clip2_19_17093)">
<g clip-path="url(#clip3_19_17093)">
<path d="M18.5331 25.7967H18.5619C18.5619 25.7848 18.5703 24.6026 19.2648 24.6026C21.1448 24.6026 21.7064 21.3746 21.7645 21.0072L21.8276 20.6064H21.4588L21.8078 17.3709H21.4082L21.3302 15.0471H20.9952L20.7434 13.0438H20.3701L19.8335 10.827H19.064L18.4768 8.76782H17.9249L17.3376 10.827H16.5683L16.0322 13.0438H15.658L15.4136 15.0471H15.0714L14.9933 17.3707H14.5939L14.9428 20.6062H14.5745L14.6374 21.0069C14.6952 21.3743 15.2571 24.6024 17.1373 24.6024C17.8264 24.6024 17.8397 25.7855 17.8397 25.7965V26.7309H10.5542V27.4243H25.9378V26.7309H18.5331V25.7967Z" fill="white"/>
</g>
</g>
</g>
</g>
<defs>
<clipPath id="clip0_19_17093">
<rect width="36.0858" height="36.0858" fill="white" transform="translate(0.203125 0.0532227)"/>
</clipPath>
<clipPath id="clip1_19_17093">
<rect width="36.0858" height="36.0858" fill="white" transform="translate(0.203125 0.0532227)"/>
</clipPath>
<clipPath id="clip2_19_17093">
<rect width="15.3836" height="18.6565" fill="white" transform="translate(10.5542 8.76782)"/>
</clipPath>
<clipPath id="clip3_19_17093">
<rect width="15.3836" height="18.6565" fill="white" transform="translate(10.5542 8.76782)"/>
</clipPath>
</defs>
</svg>
