<svg width="156" height="37" viewBox="0 0 156 37" fill="none" xmlns="http://www.w3.org/2000/svg">
<g clip-path="url(#clip0_19_17078)">
<g clip-path="url(#clip1_19_17078)">
<g clip-path="url(#clip2_19_17078)">
<g clip-path="url(#clip3_19_17078)">
<g clip-path="url(#clip4_19_17078)">
<g clip-path="url(#clip5_19_17078)">
<g clip-path="url(#clip6_19_17078)">
<path d="M44.3633 11.2333C44.4858 11.2333 44.6193 11.2674 44.7636 11.3355C44.9052 11.4035 45.0169 11.4921 45.0986 11.601L50.5112 19.7914L49.7963 19.7709L55.2702 11.601C55.4472 11.3423 55.6787 11.2197 55.9646 11.2333C56.1825 11.247 56.3731 11.3287 56.5365 11.4784C56.6999 11.6282 56.7816 11.8257 56.7816 12.0708V24.7138C56.7816 24.9452 56.6999 25.1427 56.5365 25.3061C56.3731 25.4695 56.1689 25.5512 55.9238 25.5512C55.6787 25.5512 55.4744 25.4695 55.311 25.3061C55.1476 25.1427 55.0659 24.9452 55.0659 24.7138V13.6231L55.5766 13.7252L50.7563 21.0577C50.6746 21.153 50.5766 21.2347 50.4622 21.3028C50.3451 21.3709 50.2252 21.4049 50.1027 21.4049C49.9801 21.4049 49.8576 21.3709 49.735 21.3028C49.6125 21.2347 49.5104 21.153 49.4287 21.0577L44.6697 13.7252L45.0986 13.1941V24.7138C45.0986 24.9452 45.0237 25.1427 44.8739 25.3061C44.7241 25.4695 44.5335 25.5512 44.302 25.5512C44.0705 25.5512 43.884 25.4695 43.7424 25.3061C43.598 25.1427 43.5259 24.9452 43.5259 24.7138V12.0708C43.5259 11.8529 43.6049 11.6582 43.7628 11.4866C43.918 11.3178 44.1182 11.2333 44.3633 11.2333ZM61.6428 15.6451V24.7138C61.6428 24.9452 61.5638 25.1427 61.4058 25.3061C61.2506 25.4695 61.0572 25.5512 60.8258 25.5512C60.5807 25.5512 60.3832 25.4695 60.2334 25.3061C60.0837 25.1427 60.0088 24.9452 60.0088 24.7138V15.6451C60.0088 15.4136 60.0864 15.2189 60.2416 15.061C60.3996 14.9057 60.5943 14.8281 60.8258 14.8281C61.0572 14.8281 61.2506 14.9057 61.4058 15.061C61.5638 15.2189 61.6428 15.4136 61.6428 15.6451ZM60.8258 13.4597C60.4853 13.4597 60.2334 13.3916 60.07 13.2554C59.9066 13.1192 59.8249 12.9082 59.8249 12.6222V12.3363C59.8249 12.0503 59.9135 11.8393 60.0905 11.7031C60.2675 11.5669 60.5194 11.4989 60.8462 11.4989C61.173 11.4989 61.4181 11.5669 61.5815 11.7031C61.7449 11.8393 61.8266 12.0503 61.8266 12.3363V12.6222C61.8266 12.9082 61.7408 13.1192 61.5692 13.2554C61.4004 13.3916 61.1526 13.4597 60.8258 13.4597ZM63.9916 23.8763C63.8691 23.6993 63.8146 23.5114 63.8282 23.3126C63.8418 23.1165 63.9576 22.9436 64.1754 22.7938C64.3116 22.6985 64.4709 22.6577 64.6534 22.6713C64.8386 22.6849 65.0061 22.7734 65.1558 22.9368C65.5371 23.3861 65.9728 23.7429 66.463 24.0071C66.9532 24.274 67.5524 24.4074 68.2604 24.4074C68.5872 24.3938 68.9127 24.3393 69.2367 24.244C69.5663 24.1487 69.8427 23.9826 70.066 23.7456C70.292 23.506 70.405 23.1887 70.405 22.7938C70.405 22.4126 70.2879 22.1103 70.0537 21.887C69.825 21.6609 69.5268 21.4757 69.1591 21.3314C68.7915 21.1898 68.3898 21.0645 67.954 20.9556C67.5047 20.833 67.0622 20.6928 66.6264 20.5348C66.1907 20.3796 65.7985 20.1822 65.45 19.9425C65.1041 19.7056 64.825 19.406 64.6125 19.0438C64.4028 18.6843 64.298 18.2459 64.298 17.7285C64.298 17.1157 64.4641 16.5847 64.7964 16.1353C65.1313 15.686 65.5807 15.3387 66.1444 15.0936C66.7109 14.8485 67.3277 14.726 67.9949 14.726C68.3762 14.726 68.7738 14.7696 69.1877 14.8567C69.6044 14.9466 70.0102 15.0964 70.405 15.3061C70.7999 15.5185 71.1471 15.8085 71.4467 16.1762C71.5693 16.3123 71.6373 16.4825 71.651 16.6868C71.6646 16.891 71.5747 17.0749 71.3813 17.2383C71.2343 17.3472 71.0682 17.3948 70.883 17.3812C70.7005 17.3676 70.548 17.2995 70.4255 17.177C70.1395 16.8366 69.7814 16.5738 69.3511 16.3886C68.9236 16.2061 68.4511 16.1149 67.9336 16.1149C67.6068 16.1149 67.2868 16.1625 66.9737 16.2579C66.6605 16.3532 66.3977 16.5125 66.1853 16.7358C65.9756 16.9618 65.8707 17.2723 65.8707 17.6672C65.8843 18.0348 66.0069 18.3344 66.2384 18.5659C66.4698 18.7974 66.783 18.9839 67.1779 19.1255C67.5728 19.2699 68.0085 19.4101 68.4851 19.5463C68.9181 19.6552 69.3361 19.7805 69.7392 19.9221C70.1422 20.0664 70.5072 20.2543 70.834 20.4858C71.1608 20.7173 71.4195 21.0128 71.6101 21.3723C71.798 21.7345 71.892 22.1879 71.892 22.7326C71.892 23.3589 71.7163 23.8995 71.365 24.3543C71.011 24.8118 70.5439 25.159 69.9639 25.396C69.3865 25.6356 68.7642 25.7554 68.097 25.7554C67.3481 25.7554 66.6087 25.6125 65.8789 25.3265C65.1518 25.0406 64.5227 24.5572 63.9916 23.8763ZM84.1878 20.2407C84.1878 21.3028 83.9563 22.2492 83.4933 23.0798C83.0303 23.9104 82.4013 24.564 81.606 25.0406C80.8081 25.5171 79.9053 25.7554 78.8977 25.7554C77.9037 25.7554 77.0091 25.5171 76.2139 25.0406C75.4159 24.564 74.7828 23.9104 74.3144 23.0798C73.8432 22.2492 73.6077 21.3028 73.6077 20.2407C73.6077 19.1786 73.8432 18.2323 74.3144 17.4017C74.7828 16.571 75.4159 15.9174 76.2139 15.4409C77.0091 14.9643 77.9037 14.726 78.8977 14.726C79.9053 14.726 80.8081 14.9643 81.606 15.4409C82.4013 15.9174 83.0303 16.571 83.4933 17.4017C83.9563 18.2323 84.1878 19.1786 84.1878 20.2407ZM82.5538 20.2407C82.5538 19.451 82.3944 18.7565 82.0758 18.1574C81.7545 17.5582 81.3187 17.0885 80.7686 16.7481C80.2158 16.4076 79.5922 16.2374 78.8977 16.2374C78.2169 16.2374 77.5973 16.4076 77.039 16.7481C76.4808 17.0885 76.0423 17.5582 75.7237 18.1574C75.4023 18.7565 75.2417 19.451 75.2417 20.2407C75.2417 21.0169 75.4023 21.7045 75.7237 22.3036C76.0423 22.9028 76.4808 23.3753 77.039 23.7211C77.5973 24.0697 78.2169 24.244 78.8977 24.244C79.5922 24.244 80.2158 24.0697 80.7686 23.7211C81.3187 23.3753 81.7545 22.9028 82.0758 22.3036C82.3944 21.7045 82.5538 21.0169 82.5538 20.2407ZM108.841 11.1925C109.058 11.1925 109.259 11.2674 109.441 11.4172C109.626 11.5669 109.719 11.778 109.719 12.0503C109.719 12.1457 109.705 12.2478 109.678 12.3567L105.328 25.0201C105.273 25.1835 105.174 25.3088 105.029 25.396C104.888 25.4858 104.742 25.5376 104.592 25.5512C104.429 25.5512 104.272 25.5063 104.122 25.4164C103.973 25.3292 103.857 25.1972 103.775 25.0201L100.364 16.7685L100.528 16.8298L97.1371 25.0201C97.0554 25.1972 96.9397 25.3292 96.7899 25.4164C96.6401 25.5063 96.4835 25.5512 96.3201 25.5512C96.1704 25.5376 96.0233 25.4858 95.879 25.396C95.7374 25.3088 95.6393 25.1835 95.5848 25.0201L91.2343 12.3567C91.2071 12.2478 91.1935 12.1525 91.1935 12.0708C91.1935 11.7984 91.2915 11.5833 91.4876 11.4253C91.6864 11.2701 91.8879 11.1925 92.0922 11.1925C92.2556 11.1925 92.4122 11.2401 92.562 11.3355C92.7117 11.4308 92.8139 11.5601 92.8683 11.7235L96.6878 22.9981H96.4018L99.7311 14.7668C99.7992 14.6034 99.9013 14.4741 100.037 14.3788C100.174 14.2835 100.33 14.2358 100.507 14.2358C100.671 14.2358 100.823 14.2835 100.965 14.3788C101.109 14.4741 101.209 14.6034 101.263 14.7668L104.49 22.8755L104.245 22.9777L108.044 11.7235C108.098 11.5601 108.201 11.4308 108.35 11.3355C108.5 11.2401 108.664 11.1925 108.841 11.1925ZM121.381 20.2407C121.381 21.3028 121.15 22.2492 120.687 23.0798C120.224 23.9104 119.594 24.564 118.796 25.0406C118 25.5171 117.099 25.7554 116.091 25.7554C115.097 25.7554 114.201 25.5171 113.404 25.0406C112.608 24.564 111.975 23.9104 111.504 23.0798C111.036 22.2492 110.801 21.3028 110.801 20.2407C110.801 19.1786 111.036 18.2323 111.504 17.4017C111.975 16.571 112.608 15.9174 113.404 15.4409C114.201 14.9643 115.097 14.726 116.091 14.726C117.099 14.726 118 14.9643 118.796 15.4409C119.594 15.9174 120.224 16.571 120.687 17.4017C121.15 18.2323 121.381 19.1786 121.381 20.2407ZM119.747 20.2407C119.747 19.451 119.587 18.7565 119.265 18.1574C118.947 17.5582 118.511 17.0885 117.958 16.7481C117.408 16.4076 116.786 16.2374 116.091 16.2374C115.411 16.2374 114.791 16.4076 114.233 16.7481C113.674 17.0885 113.235 17.5582 112.913 18.1574C112.595 18.7565 112.435 19.451 112.435 20.2407C112.435 21.0169 112.595 21.7045 112.913 22.3036C113.235 22.9028 113.674 23.3753 114.233 23.7211C114.791 24.0697 115.411 24.244 116.091 24.244C116.786 24.244 117.408 24.0697 117.958 23.7211C118.511 23.3753 118.947 22.9028 119.265 22.3036C119.587 21.7045 119.747 21.0169 119.747 20.2407ZM133.673 20.2407C133.673 21.3028 133.442 22.2492 132.979 23.0798C132.516 23.9104 131.887 24.564 131.091 25.0406C130.294 25.5171 129.391 25.7554 128.383 25.7554C127.389 25.7554 126.495 25.5171 125.699 25.0406C124.901 24.564 124.268 23.9104 123.8 23.0798C123.329 22.2492 123.093 21.3028 123.093 20.2407C123.093 19.1786 123.329 18.2323 123.8 17.4017C124.268 16.571 124.901 15.9174 125.699 15.4409C126.495 14.9643 127.389 14.726 128.383 14.726C129.391 14.726 130.294 14.9643 131.091 15.4409C131.887 15.9174 132.516 16.571 132.979 17.4017C133.442 18.2323 133.673 19.1786 133.673 20.2407ZM132.039 20.2407C132.039 19.451 131.88 18.7565 131.561 18.1574C131.24 17.5582 130.804 17.0885 130.254 16.7481C129.701 16.4076 129.078 16.2374 128.383 16.2374C127.702 16.2374 127.083 16.4076 126.524 16.7481C125.966 17.0885 125.528 17.5582 125.209 18.1574C124.888 18.7565 124.727 19.451 124.727 20.2407C124.727 21.0169 124.888 21.7045 125.209 22.3036C125.528 22.9028 125.966 23.3753 126.524 23.7211C127.083 24.0697 127.702 24.244 128.383 24.244C129.078 24.244 129.701 24.0697 130.254 23.7211C130.804 23.3753 131.24 22.9028 131.561 22.3036C131.88 21.7045 132.039 21.0169 132.039 20.2407ZM144.641 10.4368C144.886 10.4368 145.084 10.5144 145.234 10.6696C145.383 10.8276 145.458 11.0223 145.458 11.2538V24.7138C145.458 24.9452 145.381 25.1427 145.226 25.3061C145.068 25.4695 144.873 25.5512 144.641 25.5512C144.41 25.5512 144.215 25.4695 144.057 25.3061C143.902 25.1427 143.824 24.9452 143.824 24.7138V22.7734L144.212 22.6304C144.212 22.9572 144.114 23.3004 143.918 23.6598C143.72 24.022 143.44 24.3597 143.081 24.6729C142.719 24.9861 142.299 25.2448 141.823 25.4491C141.346 25.6533 140.829 25.7554 140.27 25.7554C139.344 25.7554 138.514 25.5171 137.779 25.0406C137.043 24.564 136.462 23.9104 136.034 23.0798C135.604 22.2492 135.389 21.3028 135.389 20.2407C135.389 19.165 135.604 18.2118 136.034 17.3812C136.462 16.5506 137.041 15.8997 137.77 15.4286C138.498 14.9602 139.317 14.726 140.23 14.726C140.801 14.726 141.337 14.8213 141.835 15.0119C142.331 15.2026 142.769 15.4613 143.15 15.7881C143.532 16.1149 143.828 16.4757 144.041 16.8706C144.251 17.2655 144.355 17.6604 144.355 18.0553L143.824 17.9327V11.2538C143.824 11.0223 143.902 10.8276 144.057 10.6696C144.215 10.5144 144.41 10.4368 144.641 10.4368ZM140.434 24.244C141.128 24.244 141.734 24.0697 142.252 23.7211C142.769 23.3753 143.178 22.8987 143.477 22.2914C143.777 21.6868 143.926 21.0032 143.926 20.2407C143.926 19.4646 143.777 18.7769 143.477 18.1778C143.178 17.5787 142.766 17.1048 142.243 16.7562C141.718 16.4104 141.115 16.2374 140.434 16.2374C139.767 16.2374 139.17 16.4104 138.645 16.7562C138.122 17.1048 137.711 17.5787 137.411 18.1778C137.111 18.7769 136.962 19.4646 136.962 20.2407C136.962 20.9896 137.111 21.6664 137.411 22.271C137.711 22.8783 138.122 23.3589 138.645 23.7129C139.17 24.067 139.767 24.244 140.434 24.244ZM147.889 23.8763C147.766 23.6993 147.712 23.5114 147.726 23.3126C147.739 23.1165 147.855 22.9436 148.073 22.7938C148.209 22.6985 148.368 22.6577 148.551 22.6713C148.736 22.6849 148.903 22.7734 149.053 22.9368C149.434 23.3861 149.87 23.7429 150.36 24.0071C150.851 24.274 151.45 24.4074 152.158 24.4074C152.485 24.3938 152.811 24.3393 153.138 24.244C153.465 24.1487 153.74 23.9826 153.963 23.7456C154.189 23.506 154.302 23.1887 154.302 22.7938C154.302 22.4126 154.187 22.1103 153.955 21.887C153.724 21.6609 153.424 21.4757 153.056 21.3314C152.689 21.1898 152.287 21.0645 151.851 20.9556C151.402 20.833 150.959 20.6928 150.524 20.5348C150.088 20.3796 149.696 20.1822 149.347 19.9425C149.001 19.7056 148.722 19.406 148.51 19.0438C148.3 18.6843 148.195 18.2459 148.195 17.7285C148.195 17.1157 148.361 16.5847 148.694 16.1353C149.029 15.686 149.478 15.3387 150.042 15.0936C150.608 14.8485 151.225 14.726 151.892 14.726C152.273 14.726 152.671 14.7696 153.085 14.8567C153.502 14.9466 153.907 15.0964 154.302 15.3061C154.697 15.5185 155.044 15.8085 155.344 16.1762C155.467 16.3123 155.535 16.4825 155.548 16.6868C155.562 16.891 155.473 17.0749 155.283 17.2383C155.133 17.3472 154.965 17.3948 154.78 17.3812C154.598 17.3676 154.445 17.2995 154.323 17.177C154.037 16.8366 153.679 16.5738 153.248 16.3886C152.821 16.2061 152.348 16.1149 151.831 16.1149C151.504 16.1149 151.184 16.1625 150.871 16.2579C150.558 16.3532 150.295 16.5125 150.083 16.7358C149.873 16.9618 149.768 17.2723 149.768 17.6672C149.782 18.0348 149.904 18.3344 150.136 18.5659C150.367 18.7974 150.68 18.9839 151.075 19.1255C151.47 19.2699 151.906 19.4101 152.382 19.5463C152.818 19.6552 153.236 19.7805 153.636 19.9221C154.04 20.0664 154.404 20.2543 154.731 20.4858C155.058 20.7173 155.317 21.0128 155.507 21.3723C155.698 21.7345 155.793 22.1879 155.793 22.7326C155.793 23.3589 155.616 23.8995 155.262 24.3543C154.908 24.8118 154.441 25.159 153.861 25.396C153.284 25.6356 152.662 25.7554 151.994 25.7554C151.245 25.7554 150.506 25.6125 149.776 25.3265C149.049 25.0406 148.42 24.5572 147.889 23.8763Z" fill="white"/>
</g>
</g>
</g>
</g>
<g clip-path="url(#clip7_19_17078)">
<g clip-path="url(#clip8_19_17078)">
<path d="M0.203125 18.0962C0.203125 8.13127 8.28117 0.0532227 18.2461 0.0532227C28.211 0.0532227 36.2891 8.13127 36.2888 18.0962C36.2888 28.0611 28.2107 36.1391 18.2461 36.1389C8.28117 36.1389 0.203125 28.0608 0.203125 18.0962ZM18.2461 34.7576C27.448 34.7576 34.9075 27.2981 34.9075 18.0962C34.9075 8.89431 27.448 1.43481 18.2461 1.43481C9.04421 1.43481 1.58471 8.89431 1.58471 18.0962C1.58471 27.2981 9.04421 34.7576 18.2461 34.7576Z" fill="white"/>
<g clip-path="url(#clip9_19_17078)">
<g clip-path="url(#clip10_19_17078)">
<path d="M18.5331 25.7967H18.5619C18.5619 25.7848 18.5703 24.6026 19.2648 24.6026C21.1448 24.6026 21.7064 21.3746 21.7645 21.0072L21.8276 20.6064H21.4588L21.8078 17.3709H21.4082L21.3302 15.0471H20.9952L20.7434 13.0438H20.3701L19.8335 10.827H19.064L18.4768 8.76782H17.9249L17.3376 10.827H16.5683L16.0322 13.0438H15.658L15.4136 15.0471H15.0714L14.9933 17.3707H14.5939L14.9428 20.6062H14.5745L14.6374 21.0069C14.6952 21.3743 15.2571 24.6024 17.1373 24.6024C17.8264 24.6024 17.8397 25.7855 17.8397 25.7965V26.7309H10.5542V27.4243H25.9378V26.7309H18.5331V25.7967Z" fill="white"/>
</g>
</g>
</g>
</g>
</g>
</g>
</g>
<defs>
<clipPath id="clip0_19_17078">
<rect width="156" height="36.192" fill="white"/>
</clipPath>
<clipPath id="clip1_19_17078">
<rect width="155.594" height="36.0858" fill="white" transform="translate(0.203125 0.0532227)"/>
</clipPath>
<clipPath id="clip2_19_17078">
<rect width="155.594" height="36.0858" fill="white" transform="translate(0.203125 0.0532227)"/>
</clipPath>
<clipPath id="clip3_19_17078">
<rect width="112.276" height="15.3187" fill="white" transform="translate(43.5215 10.4368)"/>
</clipPath>
<clipPath id="clip4_19_17078">
<rect width="112.276" height="15.3187" fill="white" transform="translate(43.5215 10.4368)"/>
</clipPath>
<clipPath id="clip5_19_17078">
<rect width="112.276" height="15.3187" fill="white" transform="translate(43.5215 10.4368)"/>
</clipPath>
<clipPath id="clip6_19_17078">
<rect width="112.276" height="15.3187" fill="white" transform="translate(43.5215 10.4368)"/>
</clipPath>
<clipPath id="clip7_19_17078">
<rect width="36.0858" height="36.0858" fill="white" transform="translate(0.203125 0.0532227)"/>
</clipPath>
<clipPath id="clip8_19_17078">
<rect width="36.0858" height="36.0858" fill="white" transform="translate(0.203125 0.0532227)"/>
</clipPath>
<clipPath id="clip9_19_17078">
<rect width="15.3836" height="18.6565" fill="white" transform="translate(10.5542 8.76782)"/>
</clipPath>
<clipPath id="clip10_19_17078">
<rect width="15.3836" height="18.6565" fill="white" transform="translate(10.5542 8.76782)"/>
</clipPath>
</defs>
</svg>
